<mxfile host="app.diagrams.net" agent="Mozilla/5.0 (Windows NT 10.0; Win64; x64) AppleWebKit/537.36 (KHTML, like Gecko) Chrome/133.0.0.0 Safari/537.36" version="26.0.16">
  <diagram name="페이지-1" id="AKN-TgvPKSxcOeQDRh1S">
    <mxGraphModel dx="593" dy="284" grid="0" gridSize="10" guides="1" tooltips="1" connect="1" arrows="1" fold="1" page="0" pageScale="1" pageWidth="827" pageHeight="1169" math="0" shadow="0">
      <root>
        <mxCell id="0" />
        <mxCell id="1" parent="0" />
        <mxCell id="iZaMy3R6LKssgBcFQ7Eu-2" value="파일다운로드" style="ellipse;whiteSpace=wrap;html=1;" vertex="1" parent="1">
          <mxGeometry x="281" y="518" width="120" height="60" as="geometry" />
        </mxCell>
        <mxCell id="iZaMy3R6LKssgBcFQ7Eu-3" value="등록/수정/삭제 불가" style="ellipse;whiteSpace=wrap;html=1;" vertex="1" parent="1">
          <mxGeometry x="376" y="665" width="120" height="60" as="geometry" />
        </mxCell>
        <mxCell id="iZaMy3R6LKssgBcFQ7Eu-5" value="일반 사원" style="shape=umlActor;verticalLabelPosition=bottom;verticalAlign=top;html=1;outlineConnect=0;" vertex="1" parent="1">
          <mxGeometry x="30" y="675" width="30" height="60" as="geometry" />
        </mxCell>
        <mxCell id="iZaMy3R6LKssgBcFQ7Eu-9" value="공지사항" style="ellipse;whiteSpace=wrap;html=1;" vertex="1" parent="1">
          <mxGeometry x="130" y="660" width="120" height="60" as="geometry" />
        </mxCell>
        <mxCell id="iZaMy3R6LKssgBcFQ7Eu-10" value="" style="endArrow=classic;html=1;rounded=0;fontSize=12;startSize=8;endSize=8;curved=1;entryX=0;entryY=0.5;entryDx=0;entryDy=0;" edge="1" parent="1" target="iZaMy3R6LKssgBcFQ7Eu-9">
          <mxGeometry width="50" height="50" relative="1" as="geometry">
            <mxPoint x="80" y="690" as="sourcePoint" />
            <mxPoint x="170" y="710" as="targetPoint" />
          </mxGeometry>
        </mxCell>
        <mxCell id="iZaMy3R6LKssgBcFQ7Eu-11" value="" style="endArrow=none;dashed=1;html=1;rounded=0;fontSize=12;startSize=8;endSize=8;curved=1;" edge="1" parent="1">
          <mxGeometry width="50" height="50" relative="1" as="geometry">
            <mxPoint x="249" y="635" as="sourcePoint" />
            <mxPoint x="300" y="571" as="targetPoint" />
          </mxGeometry>
        </mxCell>
        <mxCell id="iZaMy3R6LKssgBcFQ7Eu-12" value="&lt;font style=&quot;font-size: 10px; font-weight: normal;&quot;&gt;&amp;lt;&amp;lt;incloude&amp;gt;&amp;gt;&lt;/font&gt;" style="text;strokeColor=none;fillColor=none;html=1;fontSize=24;fontStyle=1;verticalAlign=middle;align=center;" vertex="1" parent="1">
          <mxGeometry x="281" y="589" width="66" height="17" as="geometry" />
        </mxCell>
        <mxCell id="iZaMy3R6LKssgBcFQ7Eu-13" value="" style="triangle;whiteSpace=wrap;html=1;direction=west;rotation=-60;" vertex="1" parent="1">
          <mxGeometry x="230" y="640" width="20" height="15" as="geometry" />
        </mxCell>
        <mxCell id="iZaMy3R6LKssgBcFQ7Eu-15" value="" style="endArrow=none;dashed=1;html=1;rounded=0;fontSize=12;startSize=8;endSize=8;curved=1;" edge="1" parent="1">
          <mxGeometry width="50" height="50" relative="1" as="geometry">
            <mxPoint x="281" y="689.5" as="sourcePoint" />
            <mxPoint x="372" y="692" as="targetPoint" />
          </mxGeometry>
        </mxCell>
        <mxCell id="iZaMy3R6LKssgBcFQ7Eu-16" value="&lt;font style=&quot;font-size: 10px; font-weight: normal;&quot;&gt;&amp;lt;&amp;lt;incloude&amp;gt;&amp;gt;&lt;/font&gt;" style="text;strokeColor=none;fillColor=none;html=1;fontSize=24;fontStyle=1;verticalAlign=middle;align=center;direction=east;" vertex="1" parent="1">
          <mxGeometry x="310" y="665" width="66" height="17" as="geometry" />
        </mxCell>
        <mxCell id="iZaMy3R6LKssgBcFQ7Eu-17" value="" style="triangle;whiteSpace=wrap;html=1;direction=west;rotation=0;" vertex="1" parent="1">
          <mxGeometry x="261" y="682.5" width="20" height="15" as="geometry" />
        </mxCell>
      </root>
    </mxGraphModel>
  </diagram>
</mxfile>
